<?xml version="1.0" encoding="UTF-8" standalone="no" ?>
<!DOCTYPE svg PUBLIC "-//W3C//DTD SVG 1.1//EN" "http://www.w3.org/Graphics/SVG/1.1/DTD/svg11.dtd">
<svg xmlns="http://www.w3.org/2000/svg" xmlns:xlink="http://www.w3.org/1999/xlink" version="1.1" width="500" height="500" viewBox="0 0 500 500" xml:space="preserve">
<desc>Created with Fabric.js 3.6.3</desc>
<defs>
</defs>
<g transform="matrix(2.3641925309134284 0 0 2.3641925309134284 376.26701424426375 268.78728400648356)"  >
<path style="stroke: none; stroke-width: 0; stroke-dasharray: none; stroke-linecap: butt; stroke-dashoffset: 0; stroke-linejoin: miter; stroke-miterlimit: 4; fill: rgb(255,255,255); fill-rule: nonzero; opacity: 1;"  transform=" translate(-47.681000000000004, -50)" d="M 8.362 90.717 c 0 5.093 4.142 9.283 9.194 9.283 c 0.395 0 46.127 0 46.127 0 C 67.333 100 71 96.94 71 93.29 V 82 h 5.526 c 2.72 0 5.358 -1.189 7.334 -3.145 c 1.991 -1.97 3.14 -4.672 3.14 -7.403 V 49.334 C 87 43.782 82.243 39 76.526 39 H 71 v -2.216 c 0 -0.106 -0.361 -0.21 -0.373 -0.312 c 2.799 -2.069 4.448 -5.43 4.448 -9.133 c 0 -5.757 -4.498 -10.644 -10.123 -11.149 C 63.547 7.023 55.584 0 46.024 0 c -8.084 0 -15.018 5.036 -17.808 12.13 c -0.767 -0.139 -1.566 -0.198 -2.373 -0.198 C 18.663 11.933 13.136 18 13 25 v 31.638 c -1 1.717 -2.611 3.975 -2.611 6.406 c 0 5.301 4.247 9.613 9.532 9.613 c 0.065 0 0.079 -0.003 0.079 -0.004 v 2.792 c -1 -0.302 -1.394 -0.472 -2.163 -0.472 c -2.847 0 -5.158 2.308 -5.158 5.155 c 0 0.87 0.214 1.71 0.594 2.43 C 10.368 84.109 8.362 87.192 8.362 90.717 z M 19.909 80.127 c 0 0.578 -0.238 1.102 -0.621 1.479 c -0.376 0.37 -0.891 0.6 -1.459 0.6 c -0.599 0 -1.137 -0.256 -1.517 -0.663 c -0.347 -0.372 -0.562 -0.869 -0.562 -1.417 c 0 -1.146 0.933 -2.079 2.079 -2.079 C 18.976 78.048 19.909 78.981 19.909 80.127 z M 71 77 V 44 h 5.526 C 79.735 44 83 46.126 83 49.334 v 22.117 C 83 74.66 79.735 77 76.526 77 H 71 z M 59 54.973 c 0 -1.396 1.105 -2.527 2.5 -2.527 c 1.396 0 2.5 1.131 2.5 2.527 v 35.589 c 0 1.396 -1.104 2.527 -2.5 2.527 c -1.395 0 -2.5 -1.131 -2.5 -2.527 V 54.973 z M 48 54.973 c 0 -1.396 1.104 -2.527 2.5 -2.527 c 1.396 0 2.5 1.131 2.5 2.527 v 35.589 c 0 1.396 -1.104 2.527 -2.5 2.527 c -1.396 0 -2.5 -1.131 -2.5 -2.527 V 54.973 z M 38 54.973 c 0 -1.396 1.105 -2.527 2.5 -2.527 c 1.395 0 2.5 1.131 2.5 2.527 v 35.589 c 0 1.396 -1.104 2.527 -2.5 2.527 c -1.396 0 -2.5 -1.131 -2.5 -2.527 V 54.973 z M 27.038 93.089 c 0 -0.315 0.046 -0.619 0.124 -0.909 c 0.402 -1.508 1.776 -2.625 3.41 -2.625 c 0.368 0 0.723 0.057 1.056 0.162 c 1.434 0.45 2.478 1.791 2.478 3.372 c 0 1.948 -1.585 3.533 -3.534 3.533 C 28.623 96.622 27.038 95.037 27.038 93.089 z M 27 54.973 c 0 -1.396 1.104 -2.527 2.5 -2.527 c 1.395 0 2.5 1.131 2.5 2.527 v 31.592 c 0 -0.056 -0.671 -0.085 -1.03 -0.085 c -1.501 0 -2.97 0.502 -3.97 1.346 V 54.973 z M 25 39 h 41 v 9 H 25 V 39 z M 22.547 34 C 21.102 34 20 35.338 20 36.784 v 31.476 c 0 0.001 -0.108 0.004 -0.16 0.004 c -2.882 0 -5.141 -2.337 -5.141 -5.22 c 0 -1.844 1.3 -3.463 2.3 -4.392 c 0 0 -0.031 -33.571 -0.03 -33.631 c 0.045 -2.352 0.923 -4.569 2.59 -6.261 c 1.702 -1.727 3.999 -2.744 6.377 -2.744 c 2.312 0 4.894 0.828 4.894 0.828 l 1.252 -3.194 c 1.085 -2.76 2.951 -5.117 5.4 -6.816 c 2.501 -1.735 5.439 -2.653 8.498 -2.653 c 3.589 0 7.057 1.29 9.765 3.636 c 2.684 2.324 4.456 5.521 4.99 9.006 l 0.495 3.23 l 3.258 0.287 c 3.496 0.314 6.233 3.346 6.233 6.918 c 0 1.86 -0.725 3.494 -2.04 4.839 C 67.38 33.427 65.668 34 63.864 34 H 22.547 z M 12.782 90.672 c 0 -2.662 2.166 -4.827 4.828 -4.827 c 0.862 0 1.672 0.229 2.374 0.626 c 1.463 0.831 2.453 2.402 2.453 4.201 c 0 1.799 -0.99 3.37 -2.453 4.201 c -0.702 0.398 -1.512 0.627 -2.374 0.627 C 14.948 95.5 12.782 93.334 12.782 90.672 z" stroke-linecap="round" />
</g>
<g transform="matrix(0.9941697982739057 -0.1078258419861476 0.1078258419861476 0.9941697982739057 155.5543066049512 216.91707491814896)" style=""  ><path fill="#ffffff" opacity="1" d="M-71.23-22.87L-71.23-22.87Q-70.34-25.71-67.77-37.69Q-65.20-49.68-61.47-54.82L-61.47-54.82Q-60.05-56.95-55.52-57.66Q-51.00-58.37-49.58-55.71L-49.58-55.71Q-46.20-48.61-43.36-40.00Q-40.52-31.39-39.01-24.91Q-37.51-18.44-35.02-7.87Q-32.54 2.69-31.12 8.37L-31.12 8.37Q-31.12 9.61-28.72 10.85Q-26.32 12.09-25.61 13.16L-25.61 13.16Q-23.84 16.18-25.61 17.95L-25.61 17.95Q-28.63 24.52-24.73 35.35Q-20.82 46.17-21.53 50.79L-21.53 50.79Q-22.06 54.52-27.30 55.49Q-32.54 56.47-35.20 53.10L-35.20 53.10Q-37.68 49.72-39.19 39.61Q-40.70 29.49-45.49 26.65L-45.49 26.65Q-50.46 23.81-57.21 24.61Q-63.95 25.41-68.75 29.13L-68.75 29.13Q-70.88 30.73-72.30 34.90Q-73.72 39.07-74.34 43.07Q-74.96 47.06-76.64 50.79Q-78.33 54.52-81.08 55.32Q-83.83 56.11-89.51 53.98L-89.51 53.98Q-90.58 49.01-89.60 43.69Q-88.63 38.36-86.23 31.53Q-83.83 24.70-83.12 21.15L-83.12 21.15Q-77.62-3.88-71.23-22.87ZM-61.47-6.90L-61.47-6.90Q-61.82-4.59-63.07-1.13Q-64.31 2.33-65.28 4.55Q-66.26 6.77-66.44 9.25Q-66.62 11.74-64.84 12.27L-64.84 12.27Q-61.82 14.40-55.43 14.05Q-49.04 13.69-47.98 9.96L-47.98 9.96Q-47.27 7.30-47.27 4.20Q-47.27 1.09-47.45-0.95Q-47.62-2.99-49.04-6.90Q-50.46-10.80-50.91-11.96Q-51.35-13.11-53.57-17.81Q-55.79-22.52-55.97-22.87L-55.97-22.87Q-60.05-17.90-61.47-6.90Z"/><path fill="#ffffff" opacity="1" d="M-11.41-9.56L-11.41-9.56Q-11.24-14.00-12.21-20.39Q-13.19-26.78-14.08-31.66Q-14.96-36.54-14.70-42.22Q-14.43-47.90-12.30-52.16L-12.30-52.16Q-10.70-55.53-6.62-57.13Q-2.54-58.73 1.10-57.04Q4.74-55.36 5.09-50.39L5.09-50.39Q5.27-49.50 4.74-46.75Q4.21-44.00 4.21-43.29L4.21-43.29Q4.21-39.20 4.38-31.39Q4.56-23.58 4.56-17.19Q4.56-10.80 4.21-5.30L4.21-5.30Q3.85 1.09 4.65 13.07Q5.45 25.05 4.83 34.28Q4.21 43.51 0.66 51.32L0.66 51.32Q-1.12 55.23-5.29 55.76Q-9.46 56.29-13.19 53.98L-13.19 53.98Q-15.14 52.74-15.94 49.81Q-16.74 46.88-15.85 44.22L-15.85 44.22Q-13.54 36.23-12.66 27.98Q-11.77 19.73-11.68 7.21Q-11.59-5.30-11.41-9.56Z"/><path fill="#ffffff" opacity="1" d="M17.16 5.70L17.16 5.70Q16.81-7.61 25.51-15.77Q34.20-23.94 47.16-22.16L47.16-22.16Q57.81-20.74 65.71-11.87Q73.61-2.99 73.43 8.01L73.43 8.01Q71.83 12.98 58.79 20.70Q45.74 28.42 43.97 30.20L43.97 30.20Q43.08 30.38 41.75 31.62Q40.42 32.86 41.13 33.93L41.13 33.93Q43.26 37.83 46.45 39.43Q49.65 41.03 53.64 40.32Q57.63 39.61 60.92 38.36Q64.20 37.12 68.64 34.81L68.64 34.81Q73.25 38.36 71.57 44.31Q69.88 50.26 64.38 51.14L64.38 51.14Q64.02 51.14 60.47 51.77Q56.92 52.39 56.04 52.48Q55.15 52.56 52.13 52.83Q49.11 53.10 47.52 52.83Q45.92 52.56 43.61 52.12Q41.30 51.68 39.17 50.79L39.17 50.79Q17.87 41.20 17.16 5.70ZM36.51 14.76L36.51 14.76Q52.49 14.05 55.68 3.57L55.68 3.57Q58.52-2.64 51.07-5.92Q43.61-9.21 37.75-6.19L37.75-6.19Q34.20-4.24 33.05 0.82Q31.90 5.88 33.14 10.23Q34.38 14.58 36.51 14.76Z"/><path fill="#ffffff" opacity="1" d="M91.36 34.46L91.36 34.46Q92.60 35.35 94.91 35.35L94.91 35.35Q94.55 37.83 95.44 42.09Q96.33 46.35 95.89 49.28Q95.44 52.21 92.25 54.16L92.25 54.16Q85.68 58.07 81.77 53.72Q77.87 49.37 76.09 41.56L76.09 41.56Q76.09 36.23 81.33 33.75Q86.57 31.26 91.36 34.46ZM88.87 26.29L88.87 26.29Q86.57 25.41 85.41 23.99Q84.26 22.57 84.17 20.61Q84.08 18.66 84.26 16.98Q84.44 15.29 84.97 12.80Q85.50 10.32 85.68 8.90L85.68 8.90Q90.83-29.97 98.64-52.87L98.64-52.87Q99.88-56.60 103.87-57.57Q107.87-58.55 111.06-56.78Q114.26-55.00 113.90-51.98L113.90-51.98Q112.84-38.32 106.27-12.49Q99.70 13.34 98.10 24.87L98.10 24.87Q98.10 30.02 88.87 26.29Z"/></g><g transform="matrix(0.9941697982739057 -0.1078258419861476 0.1078258419861476 0.9941697982739057 155.55430660495114 319.46787850796096)" style=""  ><path fill="#ffffff" opacity="1" d="M-65.80 44.23L-65.80 44.23Q-67.80 43.40-68.16 41.05Q-68.51 38.69-67.92 36.80L-67.92 36.80Q-67.45 33.74-63.97 22.95Q-60.49 12.16-61.08 7.21L-61.08 7.21Q-61.91 0.96-68.22-12.83Q-74.52-26.63-75.35-33.35L-75.35-33.35Q-75.70-36.06-71.99-37.77Q-68.28-39.48-66.39-37.71L-66.39-37.71Q-63.56-35.24-61.91-29.64Q-60.26-24.04-58.67-18.08Q-57.07-12.13-54.72-9.30L-54.72-9.30Q-52.83-11.77-49.82-22.21Q-46.82-32.64-42.93-35.47L-42.93-35.47Q-41.04-36.89-38.68-36.89Q-36.32-36.89-34.91-35.59Q-33.49-34.29-34.32-32.29L-34.32-32.29Q-43.99-8.35-47.76-0.22L-47.76-0.22Q-49.41 4.73-46.23 8.86L-46.23 8.86Q-45.17 9.92-46.70 13.69L-46.70 13.69Q-47.29 14.16-49.65 14.99Q-52.01 15.82-52.59 17.35L-52.59 17.35Q-57.19 38.45-58.25 42.11L-58.25 42.11Q-58.73 43.52-60.79 44.41Q-62.85 45.29-65.80 44.23Z"/><path fill="#ffffff" opacity="1" d="M-31.61 3.79L-31.61 3.79Q-31.84-5.05-26.07-10.48Q-20.29-15.90-11.68-14.72L-11.68-14.72Q-4.61-13.78 0.64-7.88Q5.88-1.99 5.77 5.32L5.77 5.32Q4.70 8.62-3.96 13.75Q-12.63 18.88-13.81 20.06L-13.81 20.06Q-14.40 20.18-15.28 21.00Q-16.16 21.83-15.69 22.54L-15.69 22.54Q-14.28 25.13-12.16 26.19Q-10.03 27.25-7.38 26.78Q-4.73 26.31-2.55 25.48Q-0.37 24.66 2.58 23.12L2.58 23.12Q5.65 25.48 4.53 29.43Q3.41 33.38-0.25 33.97L-0.25 33.97Q-0.48 33.97-2.84 34.38Q-5.20 34.80-5.79 34.86Q-6.38 34.91-8.38 35.09Q-10.39 35.27-11.45 35.09Q-12.51 34.91-14.04 34.62Q-15.57 34.33-16.99 33.74L-16.99 33.74Q-31.14 27.37-31.61 3.79ZM-18.76 9.80L-18.76 9.80Q-8.15 9.33-6.02 2.37L-6.02 2.37Q-4.14-1.75-9.09-3.93Q-14.04-6.11-17.93-4.11L-17.93-4.11Q-20.29-2.81-21.06 0.55Q-21.82 3.91-21.00 6.80Q-20.17 9.68-18.76 9.80Z"/><path fill="#ffffff" opacity="1" d="M36.42 39.51L36.42 39.51Q35.48 38.92 34.47 37.10Q33.47 35.27 32.65 35.27L32.65 35.27Q31.00 35.03 27.64 34.56Q24.28 34.09 22.33 33.68Q20.39 33.26 17.79 32.44Q15.20 31.61 13.31 30.08Q11.42 28.55 10.13 26.31L10.13 26.31Q7.89 22.89 8.36 17.88Q8.83 12.87 11.19 9.80L11.19 9.80Q13.90 6.15 17.56 3.97Q21.21 1.79 24.57 1.08Q27.93 0.37 30.88 0.31Q33.83 0.25 35.71 0.49L35.71 0.49L37.60 0.61Q38.54-0.57 38.54-3.52Q38.54-6.47 36.77-6.82L36.77-6.82Q35.00-7.65 32.00-7.18Q28.99-6.70 27.75-6.35Q26.52-6.00 23.63-4.76Q20.74-3.52 19.21-3.05L19.21-3.05Q16.14-1.99 14.73-6.41Q13.31-10.83 14.49-12.01L14.49-12.01Q18.97-15.07 25.10-16.61Q31.23-18.14 37.30-16.67Q43.38-15.19 45.85-10.00L45.85-10.00Q47.50-6.59 47.68-2.40Q47.86 1.79 47.09 5.09Q46.32 8.39 45.32 13.04Q44.32 17.70 44.08 21.00L44.08 21.00Q43.14 35.86 40.66 39.04L40.66 39.04Q38.90 41.05 36.42 39.51ZM34.30 25.25L34.30 25.25Q34.65 23.60 35.36 21.12Q36.07 18.64 36.48 17.11Q36.89 15.58 36.83 13.40Q36.77 11.22 35.83 8.98L35.83 8.98Q33.94 9.68 30.11 10.33Q26.28 10.98 23.75 11.51Q21.21 12.04 19.09 14.11Q16.97 16.17 16.85 19.71L16.85 19.71Q16.85 22.06 21.15 23.95Q25.46 25.84 29.35 25.95Q33.24 26.07 34.30 25.25Z"/><path fill="#ffffff" opacity="1" d="M51.51 2.14L51.51 2.14Q51.86-0.57 51.33-5.05Q50.80-9.53 50.92-13.37Q51.04-17.20 52.57-20.03L52.57-20.03Q53.28-21.91 55.76-22.68Q58.23-23.45 60.83-22.38L60.83-22.38Q62.36-21.44 62.36-17.55L62.36-17.55Q62.24-16.73 61.89-13.25Q61.53-9.77 61.41-8.53Q61.30-7.29 61.12-4.40Q60.94-1.52 61.06 0.25Q61.18 2.02 61.47 4.44Q61.77 6.85 62.36 8.98L62.36 8.98Q66.01 2.49 71.02-1.22Q76.03-4.94 81.93-2.34L81.93-2.34Q84.05 6.62 84.94 10.57Q85.82 14.52 86.65 21.71Q87.47 28.90 86.88 34.56L86.88 34.56Q86.76 36.68 83.40 37.57Q80.04 38.45 78.51 36.92L78.51 36.92Q75.80 33.62 75.50 28.55Q75.21 23.48 75.21 17.88Q75.21 12.28 73.20 8.51L73.20 8.51Q65.89 15.82 60.35 27.61L60.35 27.61Q59.65 28.78 57.58 29.61Q55.52 30.43 53.99 30.08L53.99 30.08Q53.75 29.96 52.98 29.79Q52.22 29.61 51.63 29.49Q51.04 29.37 50.57 29.02Q50.10 28.67 50.10 28.19L50.10 28.19Q50.10 15.34 51.51 2.14Z"/></g></svg>