<?xml version="1.0" encoding="UTF-8" standalone="no" ?>
<!DOCTYPE svg PUBLIC "-//W3C//DTD SVG 1.1//EN" "http://www.w3.org/Graphics/SVG/1.1/DTD/svg11.dtd">
<svg xmlns="http://www.w3.org/2000/svg" xmlns:xlink="http://www.w3.org/1999/xlink" version="1.1" width="500" height="500" viewBox="0 0 500 500" xml:space="preserve">
<desc>Created with Fabric.js 3.6.3</desc>
<defs>
</defs>
<g transform="matrix(1 0 0 1 250 250)" clip-path="url(#CLIPPATH_6938)"  >
<clipPath id="CLIPPATH_6938" >
	<ellipse transform="matrix(1 0 0 1 0 0)" cx="0" cy="0" rx="245.23875590969615" ry="245.23875590969615" />
</clipPath>
<ellipse style="stroke: none; stroke-width: 5; stroke-dasharray: none; stroke-linecap: butt; stroke-dashoffset: 0; stroke-linejoin: miter; stroke-miterlimit: 4; fill: rgb(255,211,78); fill-rule: nonzero; opacity: 1;"  cx="0" cy="0" rx="245.23875590969615" ry="245.23875590969615" />
</g>
<g transform="matrix(2.0944425088421674 0 0 2.0944425088421674 361.8601800148608 266.6199888771883)"  >
<path style="stroke: none; stroke-width: 0; stroke-dasharray: none; stroke-linecap: butt; stroke-dashoffset: 0; stroke-linejoin: miter; stroke-miterlimit: 4; fill: rgb(255,255,255); fill-rule: nonzero; opacity: 1;"  transform=" translate(-47.681000000000004, -50)" d="M 8.362 90.717 c 0 5.093 4.142 9.283 9.194 9.283 c 0.395 0 46.127 0 46.127 0 C 67.333 100 71 96.94 71 93.29 V 82 h 5.526 c 2.72 0 5.358 -1.189 7.334 -3.145 c 1.991 -1.97 3.14 -4.672 3.14 -7.403 V 49.334 C 87 43.782 82.243 39 76.526 39 H 71 v -2.216 c 0 -0.106 -0.361 -0.21 -0.373 -0.312 c 2.799 -2.069 4.448 -5.43 4.448 -9.133 c 0 -5.757 -4.498 -10.644 -10.123 -11.149 C 63.547 7.023 55.584 0 46.024 0 c -8.084 0 -15.018 5.036 -17.808 12.13 c -0.767 -0.139 -1.566 -0.198 -2.373 -0.198 C 18.663 11.933 13.136 18 13 25 v 31.638 c -1 1.717 -2.611 3.975 -2.611 6.406 c 0 5.301 4.247 9.613 9.532 9.613 c 0.065 0 0.079 -0.003 0.079 -0.004 v 2.792 c -1 -0.302 -1.394 -0.472 -2.163 -0.472 c -2.847 0 -5.158 2.308 -5.158 5.155 c 0 0.87 0.214 1.71 0.594 2.43 C 10.368 84.109 8.362 87.192 8.362 90.717 z M 19.909 80.127 c 0 0.578 -0.238 1.102 -0.621 1.479 c -0.376 0.37 -0.891 0.6 -1.459 0.6 c -0.599 0 -1.137 -0.256 -1.517 -0.663 c -0.347 -0.372 -0.562 -0.869 -0.562 -1.417 c 0 -1.146 0.933 -2.079 2.079 -2.079 C 18.976 78.048 19.909 78.981 19.909 80.127 z M 71 77 V 44 h 5.526 C 79.735 44 83 46.126 83 49.334 v 22.117 C 83 74.66 79.735 77 76.526 77 H 71 z M 59 54.973 c 0 -1.396 1.105 -2.527 2.5 -2.527 c 1.396 0 2.5 1.131 2.5 2.527 v 35.589 c 0 1.396 -1.104 2.527 -2.5 2.527 c -1.395 0 -2.5 -1.131 -2.5 -2.527 V 54.973 z M 48 54.973 c 0 -1.396 1.104 -2.527 2.5 -2.527 c 1.396 0 2.5 1.131 2.5 2.527 v 35.589 c 0 1.396 -1.104 2.527 -2.5 2.527 c -1.396 0 -2.5 -1.131 -2.5 -2.527 V 54.973 z M 38 54.973 c 0 -1.396 1.105 -2.527 2.5 -2.527 c 1.395 0 2.5 1.131 2.5 2.527 v 35.589 c 0 1.396 -1.104 2.527 -2.5 2.527 c -1.396 0 -2.5 -1.131 -2.5 -2.527 V 54.973 z M 27.038 93.089 c 0 -0.315 0.046 -0.619 0.124 -0.909 c 0.402 -1.508 1.776 -2.625 3.41 -2.625 c 0.368 0 0.723 0.057 1.056 0.162 c 1.434 0.45 2.478 1.791 2.478 3.372 c 0 1.948 -1.585 3.533 -3.534 3.533 C 28.623 96.622 27.038 95.037 27.038 93.089 z M 27 54.973 c 0 -1.396 1.104 -2.527 2.5 -2.527 c 1.395 0 2.5 1.131 2.5 2.527 v 31.592 c 0 -0.056 -0.671 -0.085 -1.03 -0.085 c -1.501 0 -2.97 0.502 -3.97 1.346 V 54.973 z M 25 39 h 41 v 9 H 25 V 39 z M 22.547 34 C 21.102 34 20 35.338 20 36.784 v 31.476 c 0 0.001 -0.108 0.004 -0.16 0.004 c -2.882 0 -5.141 -2.337 -5.141 -5.22 c 0 -1.844 1.3 -3.463 2.3 -4.392 c 0 0 -0.031 -33.571 -0.03 -33.631 c 0.045 -2.352 0.923 -4.569 2.59 -6.261 c 1.702 -1.727 3.999 -2.744 6.377 -2.744 c 2.312 0 4.894 0.828 4.894 0.828 l 1.252 -3.194 c 1.085 -2.76 2.951 -5.117 5.4 -6.816 c 2.501 -1.735 5.439 -2.653 8.498 -2.653 c 3.589 0 7.057 1.29 9.765 3.636 c 2.684 2.324 4.456 5.521 4.99 9.006 l 0.495 3.23 l 3.258 0.287 c 3.496 0.314 6.233 3.346 6.233 6.918 c 0 1.86 -0.725 3.494 -2.04 4.839 C 67.38 33.427 65.668 34 63.864 34 H 22.547 z M 12.782 90.672 c 0 -2.662 2.166 -4.827 4.828 -4.827 c 0.862 0 1.672 0.229 2.374 0.626 c 1.463 0.831 2.453 2.402 2.453 4.201 c 0 1.799 -0.99 3.37 -2.453 4.201 c -0.702 0.398 -1.512 0.627 -2.374 0.627 C 14.948 95.5 12.782 93.334 12.782 90.672 z" stroke-linecap="round" />
</g>
<g transform="matrix(0.9941697982739057 -0.10782584198614761 0.10782584198614761 0.9941697982739057 166.39035603335708 220.69191653673272)" style=""  ><path fill="#ffffff" opacity="1" d="M-63.05-20.26L-63.05-20.26Q-62.27-22.77-59.99-33.38Q-57.71-43.99-54.41-48.55L-54.41-48.55Q-53.15-50.44-49.14-51.07Q-45.13-51.70-43.88-49.34L-43.88-49.34Q-40.89-43.05-38.37-35.43Q-35.86-27.80-34.52-22.06Q-33.19-16.33-30.98-6.97Q-28.78 2.38-27.53 7.41L-27.53 7.41Q-27.53 8.51-25.40 9.61Q-23.28 10.71-22.65 11.65L-22.65 11.65Q-21.08 14.33-22.65 15.90L-22.65 15.90Q-25.33 21.72-21.87 31.30Q-18.41 40.89-19.04 44.98L-19.04 44.98Q-19.51 48.28-24.15 49.15Q-28.78 50.01-31.14 47.02L-31.14 47.02Q-33.34 44.04-34.68 35.08Q-36.02 26.12-40.26 23.60L-40.26 23.60Q-44.66 21.09-50.63 21.79Q-56.61 22.50-60.85 25.80L-60.85 25.80Q-62.74 27.22-64.00 30.91Q-65.25 34.61-65.80 38.14Q-66.35 41.68-67.85 44.98Q-69.34 48.28-71.78 48.99Q-74.21 49.70-79.25 47.81L-79.25 47.81Q-80.19 43.41-79.32 38.69Q-78.46 33.98-76.34 27.93Q-74.21 21.87-73.59 18.73L-73.59 18.73Q-68.71-3.44-63.05-20.26ZM-54.41-6.11L-54.41-6.11Q-54.72-4.07-55.82-1.00Q-56.92 2.07-57.79 4.03Q-58.65 6.00-58.81 8.20Q-58.97 10.40-57.39 10.87L-57.39 10.87Q-54.72 12.76-49.06 12.44Q-43.40 12.13-42.46 8.83L-42.46 8.83Q-41.83 6.47-41.83 3.72Q-41.83 0.97-41.99-0.84Q-42.15-2.65-43.40-6.11Q-44.66-9.57-45.05-10.59Q-45.45-11.61-47.41-15.78Q-49.38-19.94-49.53-20.26L-49.53-20.26Q-53.15-15.86-54.41-6.11Z"/><path fill="#ffffff" opacity="1" d="M-10.08-8.47L-10.08-8.47Q-9.92-12.40-10.78-18.06Q-11.65-23.72-12.44-28.04Q-13.22-32.36-12.99-37.39Q-12.75-42.42-10.86-46.19L-10.86-46.19Q-9.45-49.18-5.83-50.60Q-2.22-52.01 1.01-50.52Q4.23-49.02 4.54-44.62L4.54-44.62Q4.70-43.84 4.23-41.40Q3.76-38.96 3.76-38.33L3.76-38.33Q3.76-34.72 3.91-27.80Q4.07-20.89 4.07-15.23Q4.07-9.57 3.76-4.69L3.76-4.69Q3.44 0.97 4.15 11.58Q4.86 22.19 4.31 30.36Q3.76 38.54 0.61 45.45L0.61 45.45Q-0.96 48.91-4.65 49.38Q-8.35 49.85-11.65 47.81L-11.65 47.81Q-13.38 46.71-14.09 44.12Q-14.79 41.52-14.01 39.16L-14.01 39.16Q-11.96 32.09-11.18 24.78Q-10.39 17.47-10.31 6.39Q-10.23-4.69-10.08-8.47Z"/><path fill="#ffffff" opacity="1" d="M15.23 5.05L15.23 5.05Q14.92-6.74 22.62-13.97Q30.32-21.20 41.80-19.63L41.80-19.63Q51.23-18.37 58.23-10.51Q65.22-2.65 65.06 7.10L65.06 7.10Q63.65 11.50 52.10 18.34Q40.54 25.17 38.97 26.75L38.97 26.75Q38.18 26.90 37.00 28.00Q35.83 29.10 36.45 30.05L36.45 30.05Q38.34 33.51 41.17 34.92Q44.00 36.34 47.54 35.71Q51.07 35.08 53.98 33.98Q56.89 32.88 60.82 30.83L60.82 30.83Q64.91 33.98 63.41 39.24Q61.92 44.51 57.05 45.30L57.05 45.30Q56.73 45.30 53.59 45.85Q50.44 46.40 49.66 46.47Q48.87 46.55 46.20 46.79Q43.53 47.02 42.11 46.79Q40.70 46.55 38.65 46.16Q36.61 45.77 34.72 44.98L34.72 44.98Q15.86 36.49 15.23 5.05ZM32.37 13.07L32.37 13.07Q46.51 12.44 49.34 3.17L49.34 3.17Q51.86-2.34 45.26-5.24Q38.65-8.15 33.47-5.48L33.47-5.48Q30.32-3.75 29.30 0.73Q28.28 5.21 29.38 9.06Q30.48 12.91 32.37 13.07Z"/><path fill="#ffffff" opacity="1" d="M80.94 30.52L80.94 30.52Q82.04 31.30 84.09 31.30L84.09 31.30Q83.77 33.51 84.56 37.28Q85.34 41.05 84.95 43.65Q84.56 46.24 81.73 47.97L81.73 47.97Q75.91 51.43 72.45 47.58Q68.99 43.72 67.42 36.81L67.42 36.81Q67.42 32.09 72.06 29.89Q76.70 27.69 80.94 30.52ZM78.74 23.29L78.74 23.29Q76.70 22.50 75.68 21.24Q74.65 19.99 74.58 18.26Q74.50 16.53 74.65 15.03Q74.81 13.54 75.28 11.34Q75.75 9.14 75.91 7.88L75.91 7.88Q80.47-26.54 87.39-46.82L87.39-46.82Q88.49-50.12 92.02-50.99Q95.56-51.85 98.39-50.28Q101.22-48.71 100.91-46.04L100.91-46.04Q99.96-33.93 94.15-11.06Q88.33 11.81 86.92 22.03L86.92 22.03Q86.92 26.59 78.74 23.29Z"/></g><g transform="matrix(0.9941697982739057 -0.10782584198614761 0.10782584198614761 0.9941697982739057 166.39034077571702 311.5417212615686)" style=""  ><path fill="#ffffff" opacity="1" d="M-58.23 39.16L-58.23 39.16Q-60.00 38.43-60.32 36.35Q-60.63 34.26-60.11 32.59L-60.11 32.59Q-59.69 29.87-56.61 20.32Q-53.53 10.77-54.05 6.38L-54.05 6.38Q-54.78 0.85-60.37-11.36Q-65.96-23.58-66.69-29.53L-66.69-29.53Q-67.00-31.93-63.71-33.45Q-60.42-34.96-58.75-33.39L-58.75-33.39Q-56.25-31.20-54.78-26.24Q-53.32-21.28-51.91-16.01Q-50.50-10.74-48.42-8.23L-48.42-8.23Q-46.75-10.43-44.08-19.66Q-41.42-28.90-37.98-31.41L-37.98-31.41Q-36.31-32.66-34.22-32.66Q-32.13-32.66-30.88-31.51Q-29.62-30.37-30.36-28.59L-30.36-28.59Q-38.92-7.40-42.26-0.19L-42.26-0.19Q-43.72 4.19-40.90 7.84L-40.90 7.84Q-39.96 8.78-41.32 12.13L-41.32 12.13Q-41.84 12.54-43.93 13.27Q-46.02 14.00-46.54 15.36L-46.54 15.36Q-50.61 34.05-51.55 37.29L-51.55 37.29Q-51.97 38.54-53.79 39.32Q-55.62 40.10-58.23 39.16Z"/><path fill="#ffffff" opacity="1" d="M-27.95 3.36L-27.95 3.36Q-28.16-4.47-23.05-9.28Q-17.93-14.08-10.31-13.04L-10.31-13.04Q-4.05-12.20 0.60-6.98Q5.25-1.76 5.14 4.71L5.14 4.71Q4.20 7.64-3.47 12.18Q-11.15 16.72-12.19 17.76L-12.19 17.76Q-12.71 17.87-13.49 18.60Q-14.28 19.33-13.86 19.96L-13.86 19.96Q-12.61 22.25-10.73 23.19Q-8.85 24.13-6.50 23.71Q-4.15 23.30-2.22 22.57Q-0.29 21.83 2.32 20.48L2.32 20.48Q5.04 22.57 4.04 26.06Q3.05 29.56-0.18 30.08L-0.18 30.08Q-0.39 30.08-2.48 30.45Q-4.57 30.81-5.09 30.86Q-5.61 30.92-7.39 31.07Q-9.16 31.23-10.10 31.07Q-11.04 30.92-12.40 30.66Q-13.76 30.40-15.01 29.87L-15.01 29.87Q-27.54 24.24-27.95 3.36ZM-16.57 8.68L-16.57 8.68Q-7.18 8.26-5.30 2.10L-5.30 2.10Q-3.63-1.55-8.01-3.48Q-12.40-5.41-15.84-3.64L-15.84-3.64Q-17.93-2.49-18.61 0.48Q-19.29 3.46-18.56 6.02Q-17.83 8.58-16.57 8.68Z"/><path fill="#ffffff" opacity="1" d="M32.28 34.99L32.28 34.99Q31.45 34.47 30.56 32.85Q29.67 31.23 28.94 31.23L28.94 31.23Q27.48 31.02 24.51 30.60Q21.53 30.19 19.81 29.82Q18.09 29.46 15.79 28.72Q13.49 27.99 11.82 26.64Q10.15 25.28 9.00 23.30L9.00 23.30Q7.02 20.27 7.44 15.83Q7.86 11.39 9.94 8.68L9.94 8.68Q12.34 5.44 15.58 3.51Q18.82 1.58 21.79 0.95Q24.77 0.33 27.38 0.28Q29.99 0.22 31.66 0.43L31.66 0.43L33.33 0.54Q34.16-0.51 34.16-3.12Q34.16-5.73 32.60-6.04L32.60-6.04Q31.03-6.77 28.37-6.35Q25.71-5.94 24.61-5.62Q23.52-5.31 20.96-4.21Q18.40-3.12 17.04-2.70L17.04-2.70Q14.33-1.76 13.08-5.68Q11.82-9.59 12.87-10.63L12.87-10.63Q16.83-13.35 22.26-14.71Q27.69-16.06 33.07-14.76Q38.44-13.45 40.64-8.86L40.64-8.86Q42.10-5.83 42.26-2.13Q42.41 1.58 41.73 4.50Q41.05 7.43 40.17 11.55Q39.28 15.67 39.07 18.60L39.07 18.60Q38.24 31.75 36.04 34.57L36.04 34.57Q34.48 36.35 32.28 34.99ZM30.41 22.36L30.41 22.36Q30.72 20.89 31.35 18.70Q31.97 16.51 32.34 15.15Q32.70 13.80 32.65 11.86Q32.60 9.93 31.76 7.95L31.76 7.95Q30.09 8.58 26.70 9.15Q23.31 9.72 21.06 10.19Q18.82 10.66 16.94 12.49Q15.06 14.32 14.95 17.45L14.95 17.45Q14.95 19.54 18.77 21.21Q22.58 22.88 26.02 22.98Q29.47 23.09 30.41 22.36Z"/><path fill="#ffffff" opacity="1" d="M45.65 1.89L45.65 1.89Q45.96-0.51 45.49-4.47Q45.02-8.44 45.13-11.83Q45.23-15.23 46.59-17.73L46.59-17.73Q47.21-19.40 49.41-20.08Q51.60-20.76 53.90-19.82L53.90-19.82Q55.25-18.99 55.25-15.54L55.25-15.54Q55.15-14.81 54.84-11.73Q54.52-8.65 54.42-7.55Q54.31-6.46 54.16-3.90Q54.00-1.34 54.10 0.22Q54.21 1.79 54.47 3.93Q54.73 6.07 55.25 7.95L55.25 7.95Q58.49 2.21 62.93-1.08Q67.36-4.37 72.58-2.07L72.58-2.07Q74.46 5.86 75.25 9.36Q76.03 12.86 76.76 19.22Q77.49 25.59 76.97 30.60L76.97 30.60Q76.86 32.48 73.89 33.27Q70.91 34.05 69.56 32.69L69.56 32.69Q67.15 29.77 66.89 25.28Q66.63 20.79 66.63 15.83Q66.63 10.87 64.86 7.53L64.86 7.53Q58.38 14.00 53.48 24.44L53.48 24.44Q52.85 25.49 51.02 26.22Q49.20 26.95 47.84 26.64L47.84 26.64Q47.63 26.53 46.95 26.38Q46.27 26.22 45.75 26.11Q45.23 26.01 44.81 25.70Q44.40 25.38 44.40 24.97L44.40 24.97Q44.40 13.59 45.65 1.89Z"/></g></svg>