<?xml version="1.0" encoding="UTF-8" standalone="no" ?>
<!DOCTYPE svg PUBLIC "-//W3C//DTD SVG 1.1//EN" "http://www.w3.org/Graphics/SVG/1.1/DTD/svg11.dtd">
<svg xmlns="http://www.w3.org/2000/svg" xmlns:xlink="http://www.w3.org/1999/xlink" version="1.1" width="500" height="500" viewBox="0 0 500 500" xml:space="preserve">
<desc>Created with Fabric.js 3.6.3</desc>
<defs>
</defs>
<g transform="matrix(1 0 0 1 250 250)" clip-path="url(#CLIPPATH_910)"  >
<clipPath id="CLIPPATH_910" >
	<ellipse transform="matrix(1 0 0 1 0 0)" cx="0" cy="0" rx="245.23875590969615" ry="245.23875590969615" />
</clipPath>
<ellipse style="stroke: none; stroke-width: 0; stroke-dasharray: ; stroke-linecap: butt; stroke-dashoffset: 0; stroke-linejoin: miter; stroke-miterlimit: 4; fill: rgb(255,211,78); fill-rule: nonzero; opacity: 1;"  cx="0" cy="0" rx="245.23875590969615" ry="245.23875590969615" />
</g>
<g transform="matrix(3.5551750763594407 0 0 3.5551750763594407 249.99999999999997 250)"  >
<path style="stroke: none; stroke-width: 0; stroke-dasharray: none; stroke-linecap: butt; stroke-dashoffset: 0; stroke-linejoin: miter; stroke-miterlimit: 4; fill: rgb(255,255,255); fill-rule: nonzero; opacity: 1;"  transform=" translate(-47.681000000000004, -50)" d="M 8.362 90.717 c 0 5.093 4.142 9.283 9.194 9.283 c 0.395 0 46.127 0 46.127 0 C 67.333 100 71 96.94 71 93.29 V 82 h 5.526 c 2.72 0 5.358 -1.189 7.334 -3.145 c 1.991 -1.97 3.14 -4.672 3.14 -7.403 V 49.334 C 87 43.782 82.243 39 76.526 39 H 71 v -2.216 c 0 -0.106 -0.361 -0.21 -0.373 -0.312 c 2.799 -2.069 4.448 -5.43 4.448 -9.133 c 0 -5.757 -4.498 -10.644 -10.123 -11.149 C 63.547 7.023 55.584 0 46.024 0 c -8.084 0 -15.018 5.036 -17.808 12.13 c -0.767 -0.139 -1.566 -0.198 -2.373 -0.198 C 18.663 11.933 13.136 18 13 25 v 31.638 c -1 1.717 -2.611 3.975 -2.611 6.406 c 0 5.301 4.247 9.613 9.532 9.613 c 0.065 0 0.079 -0.003 0.079 -0.004 v 2.792 c -1 -0.302 -1.394 -0.472 -2.163 -0.472 c -2.847 0 -5.158 2.308 -5.158 5.155 c 0 0.87 0.214 1.71 0.594 2.43 C 10.368 84.109 8.362 87.192 8.362 90.717 z M 19.909 80.127 c 0 0.578 -0.238 1.102 -0.621 1.479 c -0.376 0.37 -0.891 0.6 -1.459 0.6 c -0.599 0 -1.137 -0.256 -1.517 -0.663 c -0.347 -0.372 -0.562 -0.869 -0.562 -1.417 c 0 -1.146 0.933 -2.079 2.079 -2.079 C 18.976 78.048 19.909 78.981 19.909 80.127 z M 71 77 V 44 h 5.526 C 79.735 44 83 46.126 83 49.334 v 22.117 C 83 74.66 79.735 77 76.526 77 H 71 z M 59 54.973 c 0 -1.396 1.105 -2.527 2.5 -2.527 c 1.396 0 2.5 1.131 2.5 2.527 v 35.589 c 0 1.396 -1.104 2.527 -2.5 2.527 c -1.395 0 -2.5 -1.131 -2.5 -2.527 V 54.973 z M 48 54.973 c 0 -1.396 1.104 -2.527 2.5 -2.527 c 1.396 0 2.5 1.131 2.5 2.527 v 35.589 c 0 1.396 -1.104 2.527 -2.5 2.527 c -1.396 0 -2.5 -1.131 -2.5 -2.527 V 54.973 z M 38 54.973 c 0 -1.396 1.105 -2.527 2.5 -2.527 c 1.395 0 2.5 1.131 2.5 2.527 v 35.589 c 0 1.396 -1.104 2.527 -2.5 2.527 c -1.396 0 -2.5 -1.131 -2.5 -2.527 V 54.973 z M 27.038 93.089 c 0 -0.315 0.046 -0.619 0.124 -0.909 c 0.402 -1.508 1.776 -2.625 3.41 -2.625 c 0.368 0 0.723 0.057 1.056 0.162 c 1.434 0.45 2.478 1.791 2.478 3.372 c 0 1.948 -1.585 3.533 -3.534 3.533 C 28.623 96.622 27.038 95.037 27.038 93.089 z M 27 54.973 c 0 -1.396 1.104 -2.527 2.5 -2.527 c 1.395 0 2.5 1.131 2.5 2.527 v 31.592 c 0 -0.056 -0.671 -0.085 -1.03 -0.085 c -1.501 0 -2.97 0.502 -3.97 1.346 V 54.973 z M 25 39 h 41 v 9 H 25 V 39 z M 22.547 34 C 21.102 34 20 35.338 20 36.784 v 31.476 c 0 0.001 -0.108 0.004 -0.16 0.004 c -2.882 0 -5.141 -2.337 -5.141 -5.22 c 0 -1.844 1.3 -3.463 2.3 -4.392 c 0 0 -0.031 -33.571 -0.03 -33.631 c 0.045 -2.352 0.923 -4.569 2.59 -6.261 c 1.702 -1.727 3.999 -2.744 6.377 -2.744 c 2.312 0 4.894 0.828 4.894 0.828 l 1.252 -3.194 c 1.085 -2.76 2.951 -5.117 5.4 -6.816 c 2.501 -1.735 5.439 -2.653 8.498 -2.653 c 3.589 0 7.057 1.29 9.765 3.636 c 2.684 2.324 4.456 5.521 4.99 9.006 l 0.495 3.23 l 3.258 0.287 c 3.496 0.314 6.233 3.346 6.233 6.918 c 0 1.86 -0.725 3.494 -2.04 4.839 C 67.38 33.427 65.668 34 63.864 34 H 22.547 z M 12.782 90.672 c 0 -2.662 2.166 -4.827 4.828 -4.827 c 0.862 0 1.672 0.229 2.374 0.626 c 1.463 0.831 2.453 2.402 2.453 4.201 c 0 1.799 -0.99 3.37 -2.453 4.201 c -0.702 0.398 -1.512 0.627 -2.374 0.627 C 14.948 95.5 12.782 93.334 12.782 90.672 z" stroke-linecap="round" />
</g>
</svg>