<?xml version="1.0" encoding="UTF-8" standalone="no" ?>
<!DOCTYPE svg PUBLIC "-//W3C//DTD SVG 1.1//EN" "http://www.w3.org/Graphics/SVG/1.1/DTD/svg11.dtd">
<svg xmlns="http://www.w3.org/2000/svg" xmlns:xlink="http://www.w3.org/1999/xlink" version="1.1" width="500" height="500" viewBox="0 0 500 500" xml:space="preserve">
<desc>Created with Fabric.js 3.6.3</desc>
<defs>
</defs>
<g transform="matrix(2.3466496901091793 0 0 2.323784630832368 97.36734842088107 233.56614852079338)"  >
<path style="stroke: none; stroke-width: 0; stroke-dasharray: none; stroke-linecap: butt; stroke-dashoffset: 0; stroke-linejoin: miter; stroke-miterlimit: 4; fill: rgb(0,0,0); fill-rule: nonzero; opacity: 1;"  transform=" translate(-47.681000000000004, -50)" d="M 8.362 90.717 c 0 5.093 4.142 9.283 9.194 9.283 c 0.395 0 46.127 0 46.127 0 C 67.333 100 71 96.94 71 93.29 V 82 h 5.526 c 2.72 0 5.358 -1.189 7.334 -3.145 c 1.991 -1.97 3.14 -4.672 3.14 -7.403 V 49.334 C 87 43.782 82.243 39 76.526 39 H 71 v -2.216 c 0 -0.106 -0.361 -0.21 -0.373 -0.312 c 2.799 -2.069 4.448 -5.43 4.448 -9.133 c 0 -5.757 -4.498 -10.644 -10.123 -11.149 C 63.547 7.023 55.584 0 46.024 0 c -8.084 0 -15.018 5.036 -17.808 12.13 c -0.767 -0.139 -1.566 -0.198 -2.373 -0.198 C 18.663 11.933 13.136 18 13 25 v 31.638 c -1 1.717 -2.611 3.975 -2.611 6.406 c 0 5.301 4.247 9.613 9.532 9.613 c 0.065 0 0.079 -0.003 0.079 -0.004 v 2.792 c -1 -0.302 -1.394 -0.472 -2.163 -0.472 c -2.847 0 -5.158 2.308 -5.158 5.155 c 0 0.87 0.214 1.71 0.594 2.43 C 10.368 84.109 8.362 87.192 8.362 90.717 z M 19.909 80.127 c 0 0.578 -0.238 1.102 -0.621 1.479 c -0.376 0.37 -0.891 0.6 -1.459 0.6 c -0.599 0 -1.137 -0.256 -1.517 -0.663 c -0.347 -0.372 -0.562 -0.869 -0.562 -1.417 c 0 -1.146 0.933 -2.079 2.079 -2.079 C 18.976 78.048 19.909 78.981 19.909 80.127 z M 71 77 V 44 h 5.526 C 79.735 44 83 46.126 83 49.334 v 22.117 C 83 74.66 79.735 77 76.526 77 H 71 z M 59 54.973 c 0 -1.396 1.105 -2.527 2.5 -2.527 c 1.396 0 2.5 1.131 2.5 2.527 v 35.589 c 0 1.396 -1.104 2.527 -2.5 2.527 c -1.395 0 -2.5 -1.131 -2.5 -2.527 V 54.973 z M 48 54.973 c 0 -1.396 1.104 -2.527 2.5 -2.527 c 1.396 0 2.5 1.131 2.5 2.527 v 35.589 c 0 1.396 -1.104 2.527 -2.5 2.527 c -1.396 0 -2.5 -1.131 -2.5 -2.527 V 54.973 z M 38 54.973 c 0 -1.396 1.105 -2.527 2.5 -2.527 c 1.395 0 2.5 1.131 2.5 2.527 v 35.589 c 0 1.396 -1.104 2.527 -2.5 2.527 c -1.396 0 -2.5 -1.131 -2.5 -2.527 V 54.973 z M 27.038 93.089 c 0 -0.315 0.046 -0.619 0.124 -0.909 c 0.402 -1.508 1.776 -2.625 3.41 -2.625 c 0.368 0 0.723 0.057 1.056 0.162 c 1.434 0.45 2.478 1.791 2.478 3.372 c 0 1.948 -1.585 3.533 -3.534 3.533 C 28.623 96.622 27.038 95.037 27.038 93.089 z M 27 54.973 c 0 -1.396 1.104 -2.527 2.5 -2.527 c 1.395 0 2.5 1.131 2.5 2.527 v 31.592 c 0 -0.056 -0.671 -0.085 -1.03 -0.085 c -1.501 0 -2.97 0.502 -3.97 1.346 V 54.973 z M 25 39 h 41 v 9 H 25 V 39 z M 22.547 34 C 21.102 34 20 35.338 20 36.784 v 31.476 c 0 0.001 -0.108 0.004 -0.16 0.004 c -2.882 0 -5.141 -2.337 -5.141 -5.22 c 0 -1.844 1.3 -3.463 2.3 -4.392 c 0 0 -0.031 -33.571 -0.03 -33.631 c 0.045 -2.352 0.923 -4.569 2.59 -6.261 c 1.702 -1.727 3.999 -2.744 6.377 -2.744 c 2.312 0 4.894 0.828 4.894 0.828 l 1.252 -3.194 c 1.085 -2.76 2.951 -5.117 5.4 -6.816 c 2.501 -1.735 5.439 -2.653 8.498 -2.653 c 3.589 0 7.057 1.29 9.765 3.636 c 2.684 2.324 4.456 5.521 4.99 9.006 l 0.495 3.23 l 3.258 0.287 c 3.496 0.314 6.233 3.346 6.233 6.918 c 0 1.86 -0.725 3.494 -2.04 4.839 C 67.38 33.427 65.668 34 63.864 34 H 22.547 z M 12.782 90.672 c 0 -2.662 2.166 -4.827 4.828 -4.827 c 0.862 0 1.672 0.229 2.374 0.626 c 1.463 0.831 2.453 2.402 2.453 4.201 c 0 1.799 -0.99 3.37 -2.453 4.201 c -0.702 0.398 -1.512 0.627 -2.374 0.627 C 14.948 95.5 12.782 93.334 12.782 90.672 z" stroke-linecap="round" />
</g>
<g transform="matrix(0.9839439622201356 -0.1784776714621198 0.1784776714621198 0.9839439622201356 374.9649909668827 192.9339639264648)" style=""  ><path fill="#000000" opacity="1" d="M-60.04-16.85L-60.04-16.85Q-59.38-18.95-57.49-27.78Q-55.59-36.61-52.84-40.40L-52.84-40.40Q-51.80-41.97-48.46-42.49Q-45.13-43.01-44.08-41.05L-44.08-41.05Q-41.59-35.82-39.50-29.48Q-37.41-23.13-36.30-18.36Q-35.19-13.58-33.35-5.80Q-31.52 1.98-30.48 6.17L-30.48 6.17Q-30.48 7.08-28.71 8.00Q-26.94 8.91-26.42 9.70L-26.42 9.70Q-25.11 11.92-26.42 13.23L-26.42 13.23Q-28.65 18.07-25.77 26.05Q-22.89 34.03-23.41 37.43L-23.41 37.43Q-23.81 40.17-27.66 40.89Q-31.52 41.61-33.48 39.13L-33.48 39.13Q-35.32 36.64-36.43 29.19Q-37.54 21.73-41.07 19.64L-41.07 19.64Q-44.73 17.55-49.70 18.13Q-54.67 18.72-58.21 21.47L-58.21 21.47Q-59.78 22.65-60.82 25.72Q-61.87 28.79-62.33 31.74Q-62.78 34.68-64.03 37.43Q-65.27 40.17-67.30 40.76Q-69.32 41.35-73.51 39.78L-73.51 39.78Q-74.29 36.12-73.57 32.20Q-72.86 28.27-71.09 23.24Q-69.32 18.20-68.80 15.58L-68.80 15.58Q-64.75-2.86-60.04-16.85ZM-52.84-5.08L-52.84-5.08Q-53.10-3.38-54.02-0.83Q-54.94 1.72-55.66 3.35Q-56.37 4.99-56.51 6.82Q-56.64 8.65-55.33 9.04L-55.33 9.04Q-53.10 10.61-48.40 10.35Q-43.69 10.09-42.90 7.34L-42.90 7.34Q-42.38 5.38-42.38 3.09Q-42.38 0.80-42.51-0.70Q-42.64-2.21-43.69-5.08Q-44.73-7.96-45.06-8.81Q-45.39-9.66-47.02-13.13Q-48.66-16.59-48.79-16.85L-48.79-16.85Q-51.80-13.19-52.84-5.08Z"/><path fill="#000000" opacity="1" d="M-15.96-7.04L-15.96-7.04Q-15.83-10.31-16.55-15.02Q-17.27-19.73-17.92-23.33Q-18.57-26.93-18.38-31.11Q-18.18-35.30-16.61-38.44L-16.61-38.44Q-15.43-40.92-12.43-42.10Q-9.42-43.28-6.74-42.03Q-4.05-40.79-3.79-37.13L-3.79-37.13Q-3.66-36.47-4.05-34.45Q-4.45-32.42-4.45-31.90L-4.45-31.90Q-4.45-28.89-4.32-23.13Q-4.19-17.38-4.19-12.67Q-4.19-7.96-4.45-3.91L-4.45-3.91Q-4.71 0.80-4.12 9.63Q-3.53 18.46-3.99 25.26Q-4.45 32.06-7.06 37.82L-7.06 37.82Q-8.37 40.70-11.44 41.09Q-14.52 41.48-17.27 39.78L-17.27 39.78Q-18.70 38.87-19.29 36.71Q-19.88 34.55-19.23 32.59L-19.23 32.59Q-17.53 26.70-16.87 20.62Q-16.22 14.54-16.15 5.32Q-16.09-3.91-15.96-7.04Z"/><path fill="#000000" opacity="1" d="M5.10 4.20L5.10 4.20Q4.84-5.61 11.25-11.62Q17.66-17.64 27.21-16.33L27.21-16.33Q35.05-15.29 40.88-8.75Q46.70-2.21 46.56 5.90L46.56 5.90Q45.39 9.57 35.77 15.26Q26.16 20.95 24.85 22.25L24.85 22.25Q24.20 22.39 23.22 23.30Q22.24 24.22 22.76 25.00L22.76 25.00Q24.33 27.88 26.68 29.06Q29.04 30.23 31.98 29.71Q34.92 29.19 37.34 28.27Q39.76 27.36 43.03 25.66L43.03 25.66Q46.43 28.27 45.19 32.65Q43.95 37.03 39.89 37.69L39.89 37.69Q39.63 37.69 37.02 38.15Q34.40 38.60 33.75 38.67Q33.09 38.74 30.87 38.93Q28.65 39.13 27.47 38.93Q26.29 38.74 24.59 38.41Q22.89 38.08 21.32 37.43L21.32 37.43Q5.62 30.36 5.10 4.20ZM19.36 10.87L19.36 10.87Q31.13 10.35 33.48 2.63L33.48 2.63Q35.58-1.94 30.08-4.36Q24.59-6.78 20.27-4.56L20.27-4.56Q17.66-3.12 16.81 0.61Q15.96 4.33 16.87 7.54Q17.79 10.74 19.36 10.87Z"/><path fill="#000000" opacity="1" d="M59.78 25.39L59.78 25.39Q60.69 26.05 62.39 26.05L62.39 26.05Q62.13 27.88 62.78 31.02Q63.44 34.16 63.11 36.32Q62.78 38.47 60.43 39.91L60.43 39.91Q55.59 42.79 52.71 39.59Q49.83 36.38 48.53 30.63L48.53 30.63Q48.53 26.70 52.39 24.87Q56.24 23.04 59.78 25.39ZM57.94 19.38L57.94 19.38Q56.24 18.72 55.39 17.68Q54.54 16.63 54.48 15.19Q54.41 13.75 54.54 12.51Q54.67 11.27 55.07 9.44Q55.46 7.60 55.59 6.56L55.59 6.56Q59.38-22.09 65.14-38.96L65.14-38.96Q66.05-41.71 69.00-42.43Q71.94-43.15 74.29-41.84Q76.65-40.53 76.39-38.31L76.39-38.31Q75.60-28.23 70.76-9.20Q65.92 9.83 64.75 18.33L64.75 18.33Q64.75 22.12 57.94 19.38Z"/></g><g transform="matrix(0.9972692317258456 0.07385173967444125 -0.07385173967444125 0.9972692317258457 341.1627143891901 287.4856995412471)" style=""  ><path fill="#000000" opacity="1" d="M-106.80 66.66L-106.80 66.66Q-109.82 65.42-110.35 61.86Q-110.88 58.31-110.00 55.47L-110.00 55.47Q-109.29 50.85-104.04 34.59Q-98.80 18.33-99.69 10.86L-99.69 10.86Q-100.93 1.45-110.44-19.34Q-119.95-40.14-121.19-50.26L-121.19-50.26Q-121.72-54.35-116.13-56.93Q-110.53-59.50-107.69-56.84L-107.69-56.84Q-103.42-53.11-100.93-44.67Q-98.45-36.23-96.05-27.25Q-93.65-18.28-90.09-14.01L-90.09-14.01Q-87.25-17.75-82.72-33.47Q-78.19-49.20-72.32-53.46L-72.32-53.46Q-69.48-55.60-65.93-55.60Q-62.37-55.60-60.24-53.64Q-58.11-51.69-59.35-48.66L-59.35-48.66Q-73.92-12.59-79.61-0.33L-79.61-0.33Q-82.10 7.13-77.30 13.35L-77.30 13.35Q-75.70 14.95-78.01 20.64L-78.01 20.64Q-78.90 21.35-82.45 22.59Q-86.01 23.84-86.90 26.15L-86.90 26.15Q-93.83 57.96-95.42 63.46L-95.42 63.46Q-96.14 65.60-99.25 66.93Q-102.36 68.26-106.80 66.66Z"/><path fill="#000000" opacity="1" d="M-55.26 5.71L-55.26 5.71Q-55.62-7.62-46.91-15.79Q-38.21-23.96-25.23-22.19L-25.23-22.19Q-14.57-20.77-6.66-11.88Q1.24-3.00 1.07 8.02L1.07 8.02Q-0.53 13.00-13.59 20.73Q-26.65 28.46-28.43 30.23L-28.43 30.23Q-29.32 30.41-30.65 31.66Q-31.99 32.90-31.28 33.97L-31.28 33.97Q-29.14 37.87-25.94 39.47Q-22.75 41.07-18.75 40.36Q-14.75 39.65-11.46 38.41Q-8.17 37.16-3.73 34.85L-3.73 34.85Q0.89 38.41-0.80 44.36Q-2.49 50.31-8.00 51.20L-8.00 51.20Q-8.35 51.20-11.91 51.82Q-15.46 52.45-16.35 52.54Q-17.24 52.62-20.26 52.89Q-23.28 53.16-24.88 52.89Q-26.48 52.62-28.79 52.18Q-31.10 51.74-33.23 50.85L-33.23 50.85Q-54.55 41.25-55.26 5.71ZM-35.90 14.77L-35.90 14.77Q-19.90 14.06-16.70 3.58L-16.70 3.58Q-13.86-2.64-21.32-5.93Q-28.79-9.22-34.65-6.19L-34.65-6.19Q-38.21-4.24-39.36 0.82Q-40.52 5.89-39.27 10.24Q-38.03 14.60-35.90 14.77Z"/><path fill="#000000" opacity="1" d="M47.27 59.55L47.27 59.55Q45.85 58.67 44.34 55.91Q42.83 53.16 41.58 53.16L41.58 53.16Q39.09 52.80 34.03 52.09Q28.97 51.38 26.03 50.76Q23.10 50.14 19.19 48.89Q15.28 47.65 12.44 45.34Q9.60 43.03 7.64 39.65L7.64 39.65Q4.26 34.50 4.98 26.95Q5.69 19.39 9.24 14.77L9.24 14.77Q13.33 9.27 18.84 5.98Q24.34 2.69 29.41 1.62Q34.47 0.56 38.92 0.47Q43.36 0.38 46.20 0.74L46.20 0.74L49.05 0.91Q50.47-0.86 50.47-5.31Q50.47-9.75 47.80-10.28L47.80-10.28Q45.14-11.53 40.60-10.81Q36.07-10.10 34.21-9.57Q32.34-9.04 27.99-7.17Q23.63-5.31 21.32-4.60L21.32-4.60Q16.70-3.00 14.57-9.66Q12.44-16.32 14.22-18.10L14.22-18.10Q20.97-22.72 30.21-25.03Q39.45-27.34 48.60-25.12Q57.75-22.90 61.48-15.08L61.48-15.08Q63.97-9.93 64.24-3.62Q64.51 2.69 63.35 7.67Q62.20 12.64 60.68 19.66Q59.17 26.68 58.82 31.66L58.82 31.66Q57.40 54.05 53.67 58.84L53.67 58.84Q51.00 61.86 47.27 59.55ZM44.07 38.05L44.07 38.05Q44.60 35.56 45.67 31.83Q46.74 28.10 47.36 25.79Q47.98 23.48 47.89 20.19Q47.80 16.91 46.38 13.53L46.38 13.53Q43.54 14.60 37.76 15.57Q31.99 16.55 28.17 17.35Q24.34 18.15 21.15 21.26Q17.95 24.37 17.77 29.70L17.77 29.70Q17.77 33.25 24.26 36.10Q30.74 38.94 36.61 39.12Q42.47 39.30 44.07 38.05Z"/><path fill="#000000" opacity="1" d="M70.01 3.22L70.01 3.22Q70.55-0.86 69.75-7.62Q68.95-14.37 69.13-20.14Q69.30-25.92 71.61-30.18L71.61-30.18Q72.68-33.03 76.41-34.18Q80.14-35.34 84.05-33.74L84.05-33.74Q86.36-32.32 86.36-26.45L86.36-26.45Q86.18-25.21 85.65-19.97Q85.12-14.72 84.94-12.86Q84.76-10.99 84.50-6.64Q84.23-2.29 84.41 0.38Q84.59 3.05 85.03 6.69Q85.47 10.33 86.36 13.53L86.36 13.53Q91.87 3.76 99.42-1.84Q106.98-7.44 115.86-3.53L115.86-3.53Q119.06 9.98 120.39 15.93Q121.72 21.88 122.97 32.72Q124.21 43.56 123.32 52.09L123.32 52.09Q123.15 55.29 118.08 56.62Q113.02 57.96 110.71 55.64L110.71 55.64Q106.62 50.67 106.18 43.03Q105.73 35.39 105.73 26.95Q105.73 18.51 102.71 12.82L102.71 12.82Q91.69 23.84 83.34 41.61L83.34 41.61Q82.28 43.38 79.17 44.63Q76.06 45.87 73.75 45.34L73.75 45.34Q73.39 45.16 72.24 44.89Q71.08 44.63 70.19 44.45Q69.30 44.27 68.59 43.74Q67.88 43.21 67.88 42.50L67.88 42.50Q67.88 23.13 70.01 3.22Z"/></g></svg>